<svg version="1.2" baseProfile="tiny-ps" xmlns="http://www.w3.org/2000/svg" width="579" height="189">
  <style>
    .shp0{fill:none;stroke:#000;stroke-width:4.38}
  </style>
  <path class="shp0" d="M5 5h60v60H5V5ZM65 5h60v60H65V5ZM125.52 5h30v60h-30V5ZM5 65h60v60H5V65ZM65 65h60v60H65V65ZM125.52 65h30v60h-30V65ZM5 125h60v60H5v-60ZM65 125h60v60H65v-60ZM125.52 125h30v60h-30v-60Z"/>
  <g>
    <path class="shp0" d="M155 5h60v60h-60V5ZM215 5h60v60h-60V5ZM275.52 5h30v60h-30V5ZM155 65h60v60h-60V65ZM215 65h60v60h-60V65ZM275.52 65h30v60h-30V65ZM155 125h60v60h-60v-60ZM215 125h60v60h-60v-60ZM275.52 125h30v60h-30v-60Z"/>
  </g>
  <g>
    <path class="shp0" d="M305 5h60v60h-60V5ZM365 5h60v60h-60V5ZM425.52 5h30v60h-30V5ZM305 65h60v60h-60V65ZM365 65h60v60h-60V65ZM425.52 65h30v60h-30V65ZM305 125h60v60h-60v-60ZM365 125h60v60h-60v-60ZM425.52 125h30v60h-30v-60Z"/>
  </g>
  <g>
    <path class="shp0" d="M455 5h60v60h-60V5ZM515 5h60v60h-60V5ZM455 65h60v60h-60V65ZM515 65h60v60h-60V65ZM455 125h60v60h-60v-60ZM515 125h60v60h-60v-60Z"/>
  </g>
  <path aria-label="DeVa" d="M5.75 3.41V185H46.5q12.7-.12 23.58-3.12 11.01-2.99 19.72-8.6 8.22-5.37 14.87-12.97 6.65-7.61 11.01-16.97 4.23-8.98 6.41-19.7 2.29-10.73 2.29-22.7V87.6q-.12-12.48-2.53-23.45-2.3-10.98-6.78-20.2-4.96-10.86-13.3-19.09-8.22-8.35-18.99-13.47-7.74-3.74-16.93-5.73-9.07-2.12-19.35-2.25H5.75Zm22.73 162.76V22.37H46.5q8.35.12 15.36 1.99 7.01 1.75 12.7 4.99 7.98 4.37 13.42 11.48 5.57 6.98 8.83 15.71 2.54 6.74 3.75 14.59 1.33 7.74 1.45 16.22v13.59q-.12 8.36-1.33 16.09-1.21 7.61-3.63 14.22-2.78 8.1-7.62 14.71-4.71 6.49-11.24 10.98-6.17 4.36-14.15 6.73-7.86 2.37-17.54 2.5H28.48Zm192.38 16.95q19.91 0 33.39-6.67 13.6-6.77 20.41-15.45l-14.24-9.31q-6.42 6.98-16.12 11.21-9.7 4.24-22.18 4.24-9.44 0-17.25-2.97-7.81-2.96-13.36-8.14-5.41-4.87-8.56-11.22-3.03-6.35-3.91-14.71v-.74h97.38v-8.78q0-11.96-3.65-22.23-3.53-10.26-10.84-17.88-7.3-7.51-18.39-11.75-10.96-4.33-25.7-4.33-11.71 0-22.93 4.02-11.08 4.02-19.77 11.53-8.82 7.62-14.11 18.63-5.29 10.9-5.29 24.76v4.44q0 11.96 4.78 22.12 4.79 10.16 13.36 17.56 8.56 7.41 20.53 11.54 12.09 4.13 26.45 4.13Zm-3.02-102.65q8.95 0 15.37 2.75 6.55 2.75 10.83 7.2 4.29 4.44 6.68 10.58 2.39 6.03 2.39 11.32v.96H179.8q1.38-7.94 4.78-13.97 3.53-6.14 8.57-10.37 5.04-4.13 11.34-6.25 6.3-2.22 13.35-2.22Zm89.25-77.06L356.35 185h17.24L422.74 3.41h-21.1l-34.48 135.32-2.35 9.1-2.25-8.85L328.29 3.41h-21.2ZM548.59 185h24.56v-1.77q-2.29-4.99-3.56-11.64-1.27-6.77-1.27-12.75v-55.77q0-10.08-4.2-17.62-4.2-7.54-11.45-12.64-7.38-4.99-17.43-7.43-10.06-2.55-21.76-2.55-12.85 0-23.03 3.11-10.05 3.1-17.05 8.09-7.13 5.1-10.94 11.42-3.69 6.32-3.82 12.86h23.66q0-3.77 2.04-7.21 2.16-3.55 5.98-6.1 3.82-2.54 9.29-4.1 5.6-1.55 12.6-1.55 7.5 0 13.48 1.66 6.11 1.67 10.31 4.66 4.2 3.1 6.49 7.43 2.29 4.32 2.29 9.75v9.43h-25.7q-14.38 0-26.09 2.44-11.58 2.43-19.85 7.31-8.27 4.99-12.85 12.42-4.45 7.43-4.45 17.29 0 7.54 3.31 14.08 3.43 6.43 9.67 11.09 6.11 4.76 14.88 7.54 8.91 2.77 19.85 2.77 6.75 0 12.73-1.22t11.32-3.33q5.22-2.1 9.54-4.88 4.46-2.77 8.02-5.87.38 3.77 1.14 7.32.9 3.43 2.29 5.76Zm-41.6-15.63q-6.87 0-12.09-1.55-5.22-1.56-8.65-4.33-3.44-2.66-5.22-6.43-1.65-3.77-1.65-8.2 0-4.66 1.91-8.31 2.03-3.66 5.85-6.32 5.34-3.77 14.38-5.55 9.16-1.88 21.37-1.88h21.89v24.28q-2.04 3.54-5.6 6.87-3.56 3.22-8.4 5.77-4.96 2.54-10.94 4.1-5.98 1.55-12.85 1.55Z"/>
</svg>
